# xmcd
#
# Track frame offsets: 
#        150
#        23005
#        42247
#        72142
#        96477
#        122067
#        140850
#        144435
#        170275
#        192315
#        213137
#        235065
#
# Disc length: 3403 seconds
#
# Revision: 1
# Processed by: cddbd v1.5.2PL0 Copyright (c) Steve Scherf et al.
# Submitted via: ExactAudioCopy v1.0b1
#
DISCID=a90d490c
DTITLE=Beverly Jo Scott - Amnesty for Eve
DYEAR=1999
DGENRE=
TTITLE0=When The Nickel Drops
TTITLE1=Chain Link Fence
TTITLE2=Mona Lisa
TTITLE3=Cool
TTITLE4=Bye-Bye Baby
TTITLE5=Charades
TTITLE6=Dinah Lee (by Arnold Hughes)
TTITLE7=Daddy's Little Girl
TTITLE8=Wide Open
TTITLE9=Twisted
TTITLE10=Heart For Sale
TTITLE11=Bonus Track ( Duo Beverly and Arno - Jean Balthazar)
EXTD=
EXTT0=
EXTT1=
EXTT2=
EXTT3=
EXTT4=
EXTT5=
EXTT6=
EXTT7=
EXTT8=
EXTT9=
EXTT10=
EXTT11=
PLAYORDER=
